HIERARCHY
ROOT Hips
{
	OFFSET 0.000000 0.000000 0.000000
	CHANNELS 6 Xposition Yposition Zposition Xrotation Yrotation Zrotation
	JOINT LeftUpLeg_virtual
	{
		OFFSET 0.000000 0.000000 0.000000
		CHANNELS 3 Xrotation Yrotation Zrotation
		JOINT LeftUpLeg
		{
			OFFSET 13.026900 -6.336304 -1.092800
			CHANNELS 3 Xrotation Yrotation Zrotation
			JOINT LeftLeg
			{
				OFFSET 0.524474 -46.096886 9.782700
				CHANNELS 3 Xrotation Yrotation Zrotation
				JOINT LeftFoot
				{
					OFFSET -0.524474 -53.427422 -12.948200
					CHANNELS 3 Xrotation Yrotation Zrotation
					JOINT LeftToeBase
					{
						OFFSET 0.192200 -14.009700 16.364100
						CHANNELS 3 Xrotation Yrotation Zrotation
						JOINT LeftToe_End
						{
							OFFSET -1.784700 -0.561700 9.474800
							CHANNELS 3 Xrotation Yrotation Zrotation
							End Site
							{
								OFFSET 0 0 0
							}
						}
					}
				}
			}
		}
	}
	JOINT RightUpLeg_virtual
	{
		OFFSET 0.000000 0.000000 0.000000
		CHANNELS 3 Xrotation Yrotation Zrotation
		JOINT RightUpLeg
		{
			OFFSET -12.883000 -6.336304 -1.092800
			CHANNELS 3 Xrotation Yrotation Zrotation
			JOINT RightLeg
			{
				OFFSET -0.524587 -46.096825 9.782800
				CHANNELS 3 Xrotation Yrotation Zrotation
				JOINT RightFoot
				{
					OFFSET 0.524587 -53.427383 -12.948300
					CHANNELS 3 Xrotation Yrotation Zrotation
					JOINT RightToeBase
					{
						OFFSET -0.192200 -14.009700 16.364100
						CHANNELS 3 Xrotation Yrotation Zrotation
						JOINT RightToe_End
						{
							OFFSET 1.784700 -0.561700 9.474800
							CHANNELS 3 Xrotation Yrotation Zrotation
							End Site
							{
								OFFSET 0 0 0
							}
						}
					}
				}
			}
		}
	}
	JOINT Spine_virtual
	{
		OFFSET 0.000000 0.000000 0.000000
		CHANNELS 3 Xrotation Yrotation Zrotation
		JOINT Spine
		{
			OFFSET 0.072000 7.257294 -0.789700
			CHANNELS 3 Xrotation Yrotation Zrotation
			JOINT Spine1
			{
				OFFSET 0.000000 12.508769 -0.658067
				CHANNELS 3 Xrotation Yrotation Zrotation
				JOINT Spine1_split
				{
					OFFSET 0.000000 12.508769 -0.658067
					CHANNELS 3 Xrotation Yrotation Zrotation
					JOINT Spine2
					{
						OFFSET 0.000000 12.508769 -0.658067
						CHANNELS 3 Xrotation Yrotation Zrotation
						JOINT Neck_virtual
						{
							OFFSET 0.000000 0.000000 0.000000
							CHANNELS 3 Xrotation Yrotation Zrotation
							JOINT Neck
							{
								OFFSET 0.000000 14.033295 7.520400
								CHANNELS 3 Xrotation Yrotation Zrotation
								JOINT Head
								{
									OFFSET 0.000000 8.198502 5.703100
									CHANNELS 3 Xrotation Yrotation Zrotation
									JOINT HeadTop_End
									{
										OFFSET 0.000000 17.760803 13.332701
										CHANNELS 3 Xrotation Yrotation Zrotation
										End Site
										{
											OFFSET 0 0 0
										}
									}
								}
							}
						}
						JOINT LeftShoulder_virtual
						{
							OFFSET 0.000000 0.000000 0.000000
							CHANNELS 3 Xrotation Yrotation Zrotation
							JOINT LeftShoulder
							{
								OFFSET 6.292450 5.785301 -0.669000
								CHANNELS 3 Xrotation Yrotation Zrotation
								JOINT LeftShoulder_split
								{
									OFFSET 6.292450 5.785301 -0.669000
									CHANNELS 3 Xrotation Yrotation Zrotation
									JOINT LeftArm
									{
										OFFSET 13.907140 -6.093903 1.965100
										CHANNELS 3 Xrotation Yrotation Zrotation
										JOINT LeftForeArm
										{
											OFFSET 34.140198 0.000000 0.000000
											CHANNELS 3 Xrotation Yrotation Zrotation
											JOINT LeftHand
											{
												OFFSET 40.960209 0.000000 0.000000
												CHANNELS 3 Xrotation Yrotation Zrotation
												End Site
												{
													OFFSET 0 0 0
												}
											}
										}
									}
								}
							}
						}
						JOINT RightShoulder_virtual
						{
							OFFSET 0.000000 0.000000 0.000000
							CHANNELS 3 Xrotation Yrotation Zrotation
							JOINT RightShoulder
							{
								OFFSET -6.292450 5.785301 -0.669000
								CHANNELS 3 Xrotation Yrotation Zrotation
								JOINT RightShoulder_split
								{
									OFFSET -6.292450 5.785301 -0.669000
									CHANNELS 3 Xrotation Yrotation Zrotation
									JOINT RightArm
									{
										OFFSET -13.907140 -6.093903 1.965100
										CHANNELS 3 Xrotation Yrotation Zrotation
										JOINT RightForeArm
										{
											OFFSET -34.140198 0.000000 0.000000
											CHANNELS 3 Xrotation Yrotation Zrotation
											JOINT RightHand
											{
												OFFSET -40.960209 0.000000 0.000000
												CHANNELS 3 Xrotation Yrotation Zrotation
												End Site
												{
													OFFSET 0 0 0
												}
											}
										}
									}
								}
							}
						}
					}
				}
			}
		}
	}
}
MOTION
Frames: 4
Frame Time: 0.03333333
0.214525 93.104073 0.224457 0.000000 0.000000 0.000000 11.729223 6.731470 -1.187558 -55.245135 1.987535 4.387940 68.306331 7.875469 -0.654584 -17.332109 6.084521 -6.809947 -3.845037 -0.128684 0.395249 0.000000 0.000000 0.000000 12.052056 6.062230 -1.105706 -52.007314 -12.654706 -7.075953 70.380414 -5.858297 -3.862759 -21.619499 -8.978568 4.590472 0.688259 0.829557 0.292359 0.000000 0.000000 0.000000 12.107635 3.913878 -1.163010 8.965671 1.110329 1.404872 8.955253 1.872169 -0.409896 1.015149 -1.123188 0.422094 0.000000 0.000000 0.000000 9.420681 0.825493 0.090333 -10.287017 -1.378150 5.904678 -25.770346 1.211486 -7.461151 0.000000 0.000000 0.000000 9.470198 0.564925 -0.000558 3.424076 -24.643109 3.603568 -2.566257 0.147663 -3.367015 -62.878715 -24.564144 -64.957517 177.549456 -72.309389 175.982256 0.000000 0.000000 0.000000 8.496838 0.564148 0.186605 -0.001193 12.275266 11.027006 0.152590 7.512598 0.675416 -62.688897 31.702603 50.550189 -178.767183 69.576193 178.152330 0.000000 0.000000 0.000000 
0.215484 93.111259 0.258011 0.000000 0.000000 0.000000 11.739207 6.728953 -1.198165 -55.253095 1.983847 4.402307 68.304590 7.883152 -0.661419 -17.333318 6.087798 -6.813439 -3.837941 -0.127783 0.391973 0.000000 0.000000 0.000000 12.062708 6.057476 -1.116316 -51.990714 -12.650481 -7.060994 70.377217 -5.859803 -3.863290 -21.620691 -8.978100 4.597262 0.677196 0.830183 0.290545 0.000000 0.000000 0.000000 12.118189 3.908808 -1.175093 8.962816 1.114626 1.396398 8.951626 1.875057 -0.418240 1.024850 -1.104562 0.399251 0.000000 0.000000 0.000000 9.417060 0.829643 0.081432 -10.271799 -1.391865 5.926517 -25.763339 1.202003 -7.461099 0.000000 0.000000 0.000000 9.466938 0.570795 -0.002228 3.429003 -24.641320 3.611482 -2.534272 0.128317 -3.378090 -62.970881 -24.602749 -65.041323 177.574277 -72.201192 176.005014 0.000000 0.000000 0.000000 8.489697 0.565559 0.179747 -0.005004 12.259325 11.039584 0.133714 7.557078 0.694997 -62.743122 31.691425 50.610882 -178.769137 69.445921 178.138328 0.000000 0.000000 0.000000 
0.226074 93.118965 0.291134 0.000000 0.000000 0.000000 11.755443 6.721491 -1.217732 -55.267681 1.973468 4.426486 68.315211 7.886224 -0.668604 -17.342585 6.088733 -6.814675 -3.831474 -0.126737 0.386843 0.000000 0.000000 0.000000 12.079316 6.052859 -1.137645 -51.968690 -12.658650 -7.044780 70.363468 -5.861944 -3.864957 -21.619470 -8.974620 4.606987 0.669924 0.831316 0.285877 0.000000 0.000000 0.000000 12.133318 3.888527 -1.192137 8.968766 1.130795 1.383221 8.932342 1.893298 -0.428096 1.033158 -1.086656 0.383843 0.000000 0.000000 0.000000 9.398894 0.848211 0.067613 -10.260719 -1.416868 5.974132 -25.761493 1.171058 -7.452490 0.000000 0.000000 0.000000 9.443048 0.592008 -0.005664 3.432462 -24.636757 3.619785 -2.517392 0.115497 -3.385698 -63.073778 -24.687239 -65.159096 177.563485 -72.091595 175.988649 0.000000 0.000000 0.000000 8.468679 0.582159 0.168660 -0.010946 12.239161 11.079134 0.142951 7.575950 0.707576 -62.828526 31.642825 50.676612 -178.746979 69.297023 178.095871 0.000000 0.000000 0.000000 
0.246133 93.123749 0.317818 0.000000 0.000000 0.000000 11.772452 6.711738 -1.238741 -55.284753 1.960817 4.451016 68.334499 7.884406 -0.674564 -17.355980 6.086461 -6.812592 -3.827555 -0.126221 0.382422 0.000000 0.000000 0.000000 12.097007 6.046708 -1.161335 -51.951034 -12.674070 -7.035229 70.343845 -5.863183 -3.867735 -21.613235 -8.970496 4.620576 0.666417 0.833040 0.279813 0.000000 0.000000 0.000000 12.148799 3.857613 -1.206751 8.980904 1.154611 1.367588 8.902668 1.921671 -0.437347 1.030414 -1.065312 0.378936 0.000000 0.000000 0.000000 9.370286 0.877061 0.052296 -10.260575 -1.446247 6.035049 -25.774931 1.127795 -7.439993 0.000000 0.000000 0.000000 9.406846 0.621979 -0.012152 3.433935 -24.635225 3.624564 -2.520753 0.133055 -3.391572 -63.150474 -24.777681 -65.255976 177.525318 -72.043906 175.949648 0.000000 0.000000 0.000000 8.437872 0.609806 0.156602 -0.017685 12.216673 11.135674 0.169090 7.568148 0.716402 -62.912135 31.575760 50.714141 -178.717569 69.193074 178.046079 0.000000 0.000000 0.000000 
